<svg xmlns="http://www.w3.org/2000/svg" width="560" height="360" viewBox="0 0 560 360" role="img" aria-labelledby="title desc">
  <title id="title">저축 리포트 모바일 미리보기</title>
  <desc id="desc">모바일 화면 안에 세후 이자, 배분안, 실행 순서가 보이는 저축 리포트 미리보기</desc>
  <rect width="560" height="360" fill="#f7f8f5"/>
  <rect x="170" y="20" width="220" height="320" rx="28" fill="#17201a"/>
  <rect x="185" y="42" width="190" height="276" rx="18" fill="#ffffff"/>
  <rect x="207" y="62" width="92" height="10" rx="5" fill="#9aa39d"/>
  <rect x="207" y="90" width="118" height="16" rx="5" fill="#17201a"/>
  <rect x="207" y="116" width="146" height="36" rx="8" fill="#eef5f0"/>
  <rect x="220" y="128" width="82" height="10" rx="5" fill="#157347"/>
  <rect x="207" y="170" width="146" height="20" rx="7" fill="#f7f8f5"/>
  <rect x="207" y="202" width="146" height="20" rx="7" fill="#f7f8f5"/>
  <rect x="207" y="234" width="146" height="20" rx="7" fill="#f7f8f5"/>
  <rect x="207" y="278" width="146" height="22" rx="7" fill="#17201a"/>
  <circle cx="103" cy="111" r="42" fill="#eef5f0"/>
  <path d="M86 114h35M86 99h27M86 129h22" stroke="#157347" stroke-width="8" stroke-linecap="round"/>
  <circle cx="447" cy="246" r="48" fill="#eaf0ff"/>
  <path d="M424 248h46M424 231h30M424 265h22" stroke="#2563eb" stroke-width="8" stroke-linecap="round"/>
</svg>
